<svg width="88" height="48" viewBox="0 0 88 48" fill="none" xmlns="http://www.w3.org/2000/svg">
<path d="M14.7175 31.544C15.3295 31.544 15.9475 31.55 16.5715 31.562C17.2075 31.562 17.8315 31.574 18.4435 31.598C19.0675 31.61 19.6435 31.646 20.1715 31.706L20.0635 33.362H15.4915C15.1315 33.362 14.8615 33.446 14.6815 33.614C14.5015 33.782 14.4115 34.046 14.4115 34.406V44H12.1615V33.956C12.1615 33.2 12.3955 32.612 12.8635 32.192C13.3315 31.76 13.9495 31.544 14.7175 31.544ZM12.4675 36.872H19.3795V38.528H12.4675V36.872ZM23.3428 35.162L23.6308 36.89L23.8288 37.142V44H21.6508V35.162H23.3428ZM27.6628 34.946L27.4468 36.962H26.8168C26.3488 36.962 25.8748 37.04 25.3948 37.196C24.9148 37.352 24.3148 37.586 23.5948 37.898L23.4508 36.62C24.0748 36.092 24.7108 35.684 25.3588 35.396C26.0068 35.096 26.6308 34.946 27.2308 34.946H27.6628ZM32.9053 34.946C34.3333 34.946 35.3593 35.198 35.9833 35.702C36.6073 36.194 36.9253 36.926 36.9373 37.898C36.9493 38.702 36.7573 39.314 36.3613 39.734C35.9773 40.142 35.3353 40.346 34.4353 40.346H29.3953V38.996H33.8413C34.2493 38.996 34.5073 38.888 34.6153 38.672C34.7353 38.456 34.7953 38.192 34.7953 37.88C34.7833 37.388 34.6393 37.046 34.3633 36.854C34.0993 36.662 33.6433 36.566 32.9953 36.566C32.4313 36.566 31.9933 36.644 31.6813 36.8C31.3693 36.956 31.1473 37.238 31.0153 37.646C30.8953 38.054 30.8353 38.642 30.8353 39.41C30.8353 40.226 30.9133 40.856 31.0693 41.3C31.2253 41.744 31.4833 42.05 31.8433 42.218C32.2033 42.374 32.6833 42.452 33.2833 42.452C33.7273 42.452 34.2373 42.434 34.8133 42.398C35.4013 42.362 35.9653 42.314 36.5053 42.254L36.7213 43.64C36.3973 43.772 36.0253 43.88 35.6053 43.964C35.1853 44.048 34.7473 44.108 34.2913 44.144C33.8473 44.192 33.4273 44.216 33.0313 44.216C31.9513 44.216 31.0813 44.06 30.4213 43.748C29.7733 43.424 29.2993 42.92 28.9993 42.236C28.7113 41.552 28.5673 40.67 28.5673 39.59C28.5673 38.426 28.7113 37.508 28.9993 36.836C29.2993 36.152 29.7673 35.666 30.4033 35.378C31.0513 35.09 31.8853 34.946 32.9053 34.946ZM44.3849 34.946C45.4769 34.946 46.2629 35.348 46.7429 36.152C47.2229 36.956 47.4629 38.12 47.4629 39.644C47.4629 40.808 47.3369 41.726 47.0849 42.398C46.8449 43.058 46.4789 43.532 45.9869 43.82C45.4949 44.096 44.8709 44.234 44.1149 44.234C43.5149 44.234 42.9269 44.15 42.3509 43.982C41.7869 43.802 41.2649 43.526 40.7849 43.154L40.9289 42.074C41.3969 42.206 41.8169 42.32 42.1889 42.416C42.5609 42.512 42.9689 42.56 43.4129 42.56C43.8569 42.56 44.2049 42.488 44.4569 42.344C44.7209 42.188 44.9129 41.9 45.0329 41.48C45.1529 41.06 45.2129 40.454 45.2129 39.662C45.2129 38.882 45.1589 38.276 45.0509 37.844C44.9429 37.412 44.7629 37.112 44.5109 36.944C44.2709 36.764 43.9529 36.674 43.5569 36.674C43.1249 36.674 42.7169 36.77 42.3329 36.962C41.9489 37.142 41.5049 37.412 41.0009 37.772L40.7489 36.62C41.0249 36.296 41.3549 36.008 41.7389 35.756C42.1349 35.504 42.5609 35.306 43.0169 35.162C43.4729 35.018 43.9289 34.946 44.3849 34.946ZM40.6589 35.162L40.8749 36.872L41.0729 37.124V42.83L40.9829 43.046C41.0189 43.394 41.0429 43.742 41.0549 44.09C41.0669 44.45 41.0729 44.816 41.0729 45.188V47.51H38.8949V35.162H40.6589ZM52.4457 32.642V41.336C52.4457 41.708 52.5237 41.972 52.6797 42.128C52.8477 42.284 53.1297 42.362 53.5257 42.362H54.7497L54.9837 43.892C54.7797 43.952 54.5337 44.006 54.2457 44.054C53.9577 44.102 53.6757 44.132 53.3997 44.144C53.1237 44.168 52.8897 44.18 52.6977 44.18C51.9297 44.18 51.3297 43.976 50.8977 43.568C50.4777 43.148 50.2677 42.548 50.2677 41.768V32.642H52.4457ZM55.0737 35.162V36.674H48.7017V35.252L50.4297 35.162H55.0737ZM60.68 34.946C61.76 34.946 62.618 35.096 63.254 35.396C63.902 35.696 64.364 36.188 64.64 36.872C64.928 37.556 65.072 38.462 65.072 39.59C65.072 40.718 64.928 41.624 64.64 42.308C64.364 42.98 63.902 43.472 63.254 43.784C62.618 44.084 61.76 44.234 60.68 44.234C59.624 44.234 58.772 44.084 58.124 43.784C57.488 43.472 57.026 42.98 56.738 42.308C56.45 41.624 56.306 40.718 56.306 39.59C56.306 38.462 56.45 37.556 56.738 36.872C57.026 36.188 57.488 35.696 58.124 35.396C58.772 35.096 59.624 34.946 60.68 34.946ZM60.68 36.602C60.152 36.602 59.732 36.692 59.42 36.872C59.12 37.04 58.904 37.34 58.772 37.772C58.64 38.204 58.574 38.81 58.574 39.59C58.574 40.37 58.64 40.976 58.772 41.408C58.904 41.84 59.12 42.14 59.42 42.308C59.732 42.476 60.152 42.56 60.68 42.56C61.22 42.56 61.646 42.476 61.958 42.308C62.27 42.14 62.486 41.84 62.606 41.408C62.738 40.976 62.804 40.37 62.804 39.59C62.804 38.81 62.738 38.204 62.606 37.772C62.486 37.34 62.27 37.04 61.958 36.872C61.646 36.692 61.22 36.602 60.68 36.602ZM68.8174 35.162L69.1054 36.89L69.3034 37.142V44H67.1254V35.162H68.8174ZM73.1374 34.946L72.9214 36.962H72.2914C71.8234 36.962 71.3494 37.04 70.8694 37.196C70.3894 37.352 69.7894 37.586 69.0694 37.898L68.9254 36.62C69.5494 36.092 70.1854 35.684 70.8334 35.396C71.4814 35.096 72.1054 34.946 72.7054 34.946H73.1374Z" fill="black"/>
<path fill-rule="evenodd" clip-rule="evenodd" d="M23.5749 21.739L19.2628 26.0868H7.92268V38.9502L4.44442 43.4781L0.249023 38.9502V22.8673C0.249023 20.1367 2.40341 17.9072 5.03379 17.9072H19.2628L23.5749 21.739Z" fill="url(#paint0_linear_515_2337)"/>
<path fill-rule="evenodd" clip-rule="evenodd" d="M30.5315 29.8036L26.6184 25.1007L26.6184 14.1514L5.97616 14.1514L0.0966797 10.2384L5.97616 6.08691L29.2869 6.08691C32.0175 6.08691 34.2471 8.2413 34.2471 10.8717V25.1007L30.5315 29.8036Z" fill="url(#paint1_linear_515_2337)"/>
<defs>
<linearGradient id="paint0_linear_515_2337" x1="0.249023" y1="30.99" x2="23.5749" y2="30.99" gradientUnits="userSpaceOnUse">
<stop stop-color="#0072FF"/>
<stop offset="1" stop-color="#00C6FF"/>
</linearGradient>
<linearGradient id="paint1_linear_515_2337" x1="16.7748" y1="6.08691" x2="16.7748" y2="29.8036" gradientUnits="userSpaceOnUse">
<stop stop-color="#0072FF"/>
<stop offset="1" stop-color="#00C6FF"/>
</linearGradient>
</defs>
</svg>
